<svg xmlns="http://www.w3.org/2000/svg" viewBox="0 0 48 48"><path d="M7,42v2a5,5,0,0,1-5-5V11A5,5,0,0,1,7,6H18V8H7a3,3,0,0,0-3,3v3H18v2H4V39A3,3,0,0,0,7,42ZM41,6V8a3,3,0,0,1,3,3v3H41v2h3V39a3,3,0,0,1-3,3H25v2H41a5,5,0,0,0,5-5V11A5,5,0,0,0,41,6ZM12,12V10H8v2Zm6,0V10H14v2Zm12-2a5,5,0,0,0-3.84,1.79l1.54,1.28a3,3,0,0,1,4.6,0l1.54-1.28A5,5,0,0,0,30,10Zm0-2a7,7,0,0,1,5.16,2.27l1.48-1.34a9,9,0,0,0-13.28,0l1.48,1.34A7,7,0,0,1,30,8Zm-1,8h2V14H29Zm-9,1V5a3,3,0,0,1,3-3H37a3,3,0,0,1,3,3V17a3,3,0,0,1-3,3H23A3,3,0,0,1,20,17Zm2,0a1,1,0,0,0,1,1H37a1,1,0,0,0,1-1V5a1,1,0,0,0-1-1H23a1,1,0,0,0-1,1Zm2,8V43a3,3,0,0,1-3,3H11a3,3,0,0,1-3-3V25a3,3,0,0,1,3-3H21A3,3,0,0,1,24,25Zm-2,0a1,1,0,0,0-1-1H11a1,1,0,0,0-1,1V43a1,1,0,0,0,1,1H21a1,1,0,0,0,1-1ZM14,42h4V40H14ZM40,22H26v2H40Zm0,4H26v2H40ZM26,40H40V38H26Zm14-5a1,1,0,0,1-1,1H27a1,1,0,0,1-1-1V31a1,1,0,0,1,1-1H39a1,1,0,0,1,1,1Zm-2-3H28v2H38Z" data-name="32 Application, App, Internet, Mobile,"/></svg>