<?xml version="1.0" standalone="no"?>
<!DOCTYPE svg PUBLIC "-//W3C//DTD SVG 20010904//EN"
 "http://www.w3.org/TR/2001/REC-SVG-20010904/DTD/svg10.dtd">
<svg version="1.0" xmlns="http://www.w3.org/2000/svg"
 width="60" height="60"  viewBox="0 0 768.000000 768.000000"
 preserveAspectRatio="xMidYMid meet">

<g transform="translate(0.000000,768.000000) scale(0.100000,-0.100000)"
fill="#ED181B" stroke="#ED181B" background="#ED181B" >
<path d="M3690 7243 c-709 -31 -1382 -282 -1960 -729 -241 -186 -543 -514
-727 -789 -463 -692 -654 -1545 -533 -2379 88 -603 328 -1152 716 -1641 116
-146 400 -428 544 -539 478 -371 1007 -601 1584 -691 957 -147 1898 104 2661
711 141 112 406 377 519 519 363 454 605 990 700 1549 38 223 49 354 49 601 0
382 -52 703 -173 1066 -122 365 -306 706 -556 1029 -114 148 -417 450 -564
564 -581 449 -1207 684 -1926 726 -163 9 -190 10 -334 3z m520 -179 c210 -23
593 -106 573 -124 -26 -23 -330 -252 -453 -341 -666 -484 -1220 -781 -1738
-930 -62 -18 -114 -30 -116 -28 -7 6 46 255 83 393 76 282 162 511 287 757
l85 166 61 17 c373 104 804 135 1218 90z m-1559 -295 c-142 -302 -265 -690
-331 -1046 l-23 -122 -46 -8 c-25 -4 -120 -8 -211 -7 -135 1 -179 5 -241 22
-109 30 -213 85 -281 150 -58 55 -138 165 -138 189 0 19 138 167 262 281 201
185 451 361 690 486 115 61 359 169 365 162 2 -2 -19 -50 -46 -107z m2469 55
c695 -297 1281 -850 1624 -1531 79 -158 187 -453 235 -641 25 -96 61 -268 61
-289 0 -8 -27 8 -67 40 -79 63 -277 189 -378 239 -474 238 -1122 384 -1910
429 -255 15 -941 6 -1205 -15 -323 -26 -882 -96 -1057 -132 -30 -6 -33 -4 -33
17 0 77 46 508 55 517 1 1 60 18 131 37 634 167 1363 578 2226 1255 134 106
167 128 188 124 14 -3 72 -26 130 -50z m-3822 -1063 c57 -87 180 -193 284
-244 159 -78 227 -92 476 -92 l214 0 -6 -40 c-13 -86 -36 -362 -36 -422 0 -76
8 -71 -174 -108 -418 -85 -799 -247 -1167 -496 -66 -45 -156 -113 -200 -151
l-80 -69 6 53 c57 486 228 982 475 1374 56 89 166 244 173 244 2 0 18 -22 35
-49z m3333 -851 c906 -47 1638 -232 2089 -529 101 -66 245 -194 309 -274 l51
-65 0 -196 c0 -454 -83 -869 -256 -1276 -86 -201 -229 -455 -346 -615 l-48
-65 -93 62 c-50 34 -150 105 -222 158 -304 227 -375 284 -850 679 -640 533
-1005 788 -1410 985 -247 121 -531 213 -775 251 -137 21 -448 30 -569 16 -52
-6 -97 -9 -99 -7 -9 9 -21 216 -28 457 l-7 257 54 11 c121 24 447 71 669 95
522 59 1074 79 1531 56z m-2407 -472 c5 -156 11 -317 15 -358 l6 -75 -134 -37
c-175 -48 -280 -88 -421 -159 -402 -204 -702 -523 -875 -930 l-42 -99 -31 103
c-91 298 -142 617 -142 881 l0 114 47 53 c251 279 680 538 1133 684 94 30 384
101 426 104 7 1 13 -88 18 -281z m811 -573 c596 -90 1133 -383 1985 -1085 376
-310 650 -536 723 -599 102 -85 344 -267 474 -355 82 -55 100 -72 93 -85 -4
-9 -58 -68 -118 -132 -362 -380 -808 -667 -1304 -838 -221 -76 -529 -142 -724
-156 l-89 -7 -85 52 c-117 71 -217 148 -334 260 -601 574 -1033 1545 -1200
2700 -14 96 -26 192 -26 212 l0 36 63 6 c34 3 78 8 97 10 67 8 346 -4 445 -19z
m-749 -215 c142 -1046 522 -2012 1032 -2621 106 -127 266 -286 367 -365 l76
-59 -38 -3 c-54 -5 -277 16 -413 39 -831 140 -1563 587 -2072 1266 -111 149
-196 287 -290 469 l-77 152 23 73 c37 117 73 206 127 314 234 465 616 763
1149 900 47 12 86 21 88 20 2 -2 14 -85 28 -185z"/>
</g>
</svg>
