<svg xmlns="http://www.w3.org/2000/svg"  fill-rule="evenodd" stroke-linejoin="round" stroke-miterlimit="2" clip-rule="evenodd" viewBox="0 0 32 32"><path d="M14.293 4.646a1.5 1.5 0 0 1 2.414-1.707l2.149 2.15.03-.03a1.959 1.959 0 0 1 3.345 1.388c0 .52-.206 1.018-.574 1.386l-.028.028.639.639H28a1.503 1.503 0 0 1 1.5 1.5v13a1.503 1.503 0 0 1-1.5 1.5h-9.079l.17 1.015a2.5 2.5 0 0 1 2.409 2.498v1a.5.5 0 0 1-.5.5H11a.5.5 0 0 1-.5-.5v-1a2.5 2.5 0 0 1 2.409-2.498l.17-1.015H4A1.503 1.503 0 0 1 2.5 23V10A1.503 1.503 0 0 1 4 8.5h7.734l.311-.934a4.5 4.5 0 0 1 1.087-1.759l1.161-1.161ZM19 26.513h-6a1.5 1.5 0 0 0-1.5 1.5v.5h9v-.5a1.499 1.499 0 0 0-1.5-1.5Zm-5.076-1h4.152l-.168-1.013h-3.816l-.168 1.013Zm14.576-3h-25V23c0 .133.053.26.146.354A.504.504 0 0 0 4 23.5h24c.133 0 .26-.053.354-.146A.504.504 0 0 0 28.5 23v-.487ZM23.268 9.5l.51.51c.281.282.44.663.44 1.061a1.5 1.5 0 0 1-2.147 1.354l-1.161 1.16a4.488 4.488 0 0 1-1.759 1.087l-3.234 1.079-.271.27 2.475 2.475a.499.499 0 0 1-.195.828l-2.121.707a.5.5 0 0 1-.512-.121l-1.768-1.768-.353.354a1.503 1.503 0 0 1-2.122 0l-2.828-2.829a1.501 1.501 0 0 1 0-2.121l2.745-2.745L11.4 9.5H4a.504.504 0 0 0-.354.146A.504.504 0 0 0 3.5 10v11.513h25V10a.504.504 0 0 0-.146-.354A.504.504 0 0 0 28 9.5h-4.732Zm-9.036 7.935 1.549 1.549 1.061-.353-1.903-1.903-.707.707Zm-2.828-5.657-2.475 2.475a.5.5 0 0 0 0 .707l2.828 2.829a.504.504 0 0 0 .707 0l2.475-2.475-3.535-3.536Zm3.535-6.364-1.1 1.1a3.505 3.505 0 0 0-.845 1.368l-1.018 3.054 3.805 3.806 3.054-1.018a3.5 3.5 0 0 0 1.368-.846l1.1-1.1-6.364-6.364Zm8.132 6.011a.5.5 0 0 0 0-.707L16 3.646a.504.504 0 0 0-.707 0 .5.5 0 0 0 0 .708l7.071 7.071a.504.504 0 0 0 .707 0Zm-2.149-4.271.028-.028a.96.96 0 0 0 0-1.358l-.002-.002a.957.957 0 0 0-1.355 0l-.03.03 1.359 1.358Z"/></svg>