<?xml version="1.0" encoding="UTF-8"?>
<svg width="200px"  height="200px" version="1.1" viewBox="0 0 752 752" xmlns="http://www.w3.org/2000/svg">
 <g>
  <path d="m292.86 378h-55.777c-11.473 0-20.836-9.3672-20.836-20.836v-55.777c0-11.473 9.3672-20.836 20.836-20.836h55.777c11.473 0 20.836 9.3672 20.836 20.836v55.777c0 11.469-9.2617 20.836-20.836 20.836zm-55.777-87.031c-5.6836 0-10.312 4.6289-10.312 10.312v55.777c0 5.6836 4.6289 10.312 10.312 10.312h55.777c5.6836 0 10.312-4.6289 10.312-10.312v-55.777c0-5.6836-4.6289-10.312-10.312-10.312z"/>
  <path d="m292.86 567.01h-55.777c-11.473 0-20.836-9.3672-20.836-20.836v-55.777c0-11.473 9.3672-20.836 20.836-20.836h55.777c11.473 0 20.836 9.3672 20.836 20.836v55.777c0 11.469-9.2617 20.836-20.836 20.836zm-55.777-87.031c-5.6836 0-10.312 4.6289-10.312 10.312v55.777c0 5.6836 4.6289 10.312 10.312 10.312h55.777c5.6836 0 10.312-4.6289 10.312-10.312v-55.777c0-5.6836-4.6289-10.312-10.312-10.312z"/>
  <path d="m515.45 378h-55.777c-11.473 0-20.836-9.3672-20.836-20.836v-55.777c0-11.473 9.3672-20.836 20.836-20.836h55.777c11.473 0 20.836 9.3672 20.836 20.836v55.777c0 11.469-9.2617 20.836-20.836 20.836zm-55.777-87.031c-5.6836 0-10.312 4.6289-10.312 10.312v55.777c0 5.6836 4.6289 10.312 10.312 10.312h55.777c5.6836 0 10.312-4.6289 10.312-10.312v-55.777c0-5.6836-4.6289-10.312-10.312-10.312z"/>
  <path d="m418.2 487.66h-55.777c-11.473 0-20.836-9.3672-20.836-20.836v-55.777c0-11.473 9.3672-20.836 20.836-20.836h55.777c11.473 0 20.836 9.3672 20.836 20.836v55.777c0 11.469-9.3633 20.836-20.836 20.836zm-55.883-87.031c-5.6836 0-10.312 4.6289-10.312 10.312v55.777c0 5.6836 4.6289 10.312 10.312 10.312h55.777c5.6836 0 10.312-4.6289 10.312-10.312v-55.777c0-5.6836-4.6289-10.312-10.312-10.312z"/>
  <path d="m444.09 334.54h-135.66c-2.9453 0-5.2617-2.3164-5.2617-5.2617 0-2.9453 2.3164-5.2617 5.2617-5.2617h135.55c2.9453 0 5.2617 2.3164 5.2617 5.2617 0 2.9492-2.3164 5.2617-5.1562 5.2617z"/>
  <path d="m433.46 443.14c-2.9453 0-5.2617-2.3164-5.2617-5.2617 0-2.9453 2.3164-5.2617 5.2617-5.2617l48.832-0.21094v-59.672c0-2.9453 2.3164-5.2617 5.2617-5.2617 2.9453 0 5.2617 2.3164 5.2617 5.2617v64.934c0 2.9453-2.3164 5.2617-5.2617 5.2617z"/>
  <path d="m264.97 479.98c-2.9453 0-5.2617-2.3164-5.2617-5.2617v-33.258c0-2.9453 2.3164-5.2617 5.2617-5.2617h81.773c2.9453 0 5.2617 2.3164 5.2617 5.2617 0 2.9453-2.3164 5.2617-5.2617 5.2617h-76.508v27.992c-0.003906 2.9492-2.3203 5.2656-5.2656 5.2656z"/>
  <path d="m579.22 598.27h-405.91c-16.312 0-29.574-13.262-29.574-29.574v-383.81c0-16.312 13.262-29.574 29.574-29.574h406.02c16.312 0 29.574 13.262 29.574 29.574v383.81c0 16.309-13.367 29.57-29.68 29.57zm-405.91-432.43c-10.523 0-19.047 8.5234-19.047 19.047v383.81c0 10.523 8.5234 19.047 19.047 19.047h406.02c10.523 0 19.047-8.5234 19.047-19.047l0.003906-383.81c0-10.523-8.5234-19.047-19.047-19.047z"/>
  <path d="m603.64 257.61h-454.64c-2.9453 0-5.2617-2.3164-5.2617-5.2617s2.3164-5.2617 5.2617-5.2617h454.64c2.9453 0 5.2617 2.3164 5.2617 5.2617s-2.4219 5.2617-5.2617 5.2617z"/>
  <path d="m207.3 229.51c-12.734 0-23.047-10.312-23.047-23.047 0-12.734 10.312-23.047 23.047-23.047s23.047 10.312 23.047 23.047c0 12.629-10.418 23.047-23.047 23.047zm0-35.57c-6.9453 0-12.523 5.5781-12.523 12.523 0 6.9453 5.5781 12.523 12.523 12.523 6.9453 0 12.523-5.5781 12.523-12.523 0-6.9492-5.6836-12.523-12.523-12.523z"/>
  <path d="m272.76 229.51c-12.734 0-23.047-10.312-23.047-23.047 0-12.734 10.312-23.047 23.047-23.047s23.047 10.312 23.047 23.047c0 12.734-10.312 23.047-23.047 23.047zm0-35.57c-6.9453 0-12.523 5.5781-12.523 12.523 0 6.9453 5.5781 12.523 12.523 12.523 6.9453 0 12.523-5.5781 12.523-12.523 0-6.9492-5.5781-12.523-12.523-12.523z"/>
  <path d="m338.22 229.51c-12.734 0-23.047-10.312-23.047-23.047 0-12.734 10.312-23.047 23.047-23.047 12.734-0.003906 23.051 10.312 23.051 23.047 0 12.629-10.316 23.047-23.051 23.047zm0-35.57c-6.9453 0-12.523 5.5781-12.523 12.523 0 6.9453 5.5781 12.523 12.523 12.523 6.9492 0 12.523-5.6836 12.523-12.523 0-6.8438-5.5742-12.523-12.523-12.523z"/>
  <path d="m498.5 211.72h-106.82c-2.9453 0-5.2617-2.3164-5.2617-5.2617 0-2.9453 2.3164-5.2617 5.2617-5.2617h106.71c2.9453 0 5.2617 2.3164 5.2617 5.2617-0.003906 2.9453-2.3164 5.2617-5.1602 5.2617z"/>
  <path d="m563.12 211.72h-29.469c-2.9453 0-5.2617-2.3164-5.2617-5.2617 0-2.9453 2.3164-5.2617 5.2617-5.2617h29.469c2.9453 0 5.2617 2.3164 5.2617 5.2617 0 2.9453-2.418 5.2617-5.2617 5.2617z"/>
  <path d="m548.39 226.45c-2.9453 0-5.2617-2.3164-5.2617-5.2617v-29.469c0-2.9453 2.3164-5.2617 5.2617-5.2617 2.9453 0 5.2617 2.3164 5.2617 5.2617v29.469c0 2.8438-2.4219 5.2617-5.2617 5.2617z"/>
 </g>
</svg>
