<svg xmlns="http://www.w3.org/2000/svg"   enable-background="new 0 0 512 512" viewBox="0 0 512 512"><path fill="#86756C" d="M322.6 433.2H189.4c-16.1 0-29.2 13.1-29.2 29.2v31.6c0 10 8.2 18.1 18.1 18.1h155.2c10 0 18.1-8.1 18.1-18.1v-31.6C351.7 446.2 338.6 433.2 322.6 433.2zM241.3 285.9c0 8.1 6.6 14.7 14.7 14.7 8.1 0 14.7-6.6 14.7-14.7 0-8-6.5-14.8-14.8-14.8C247.8 271.2 241.3 277.8 241.3 285.9z"/><path d="M263,127.8c-0.5-0.7-1.6-0.4-1.6,0.5v132.8c11.4,2.5,20.1,12.6,20.1,24.9c0,14-11.4,25.3-25.4,25.3c-13,0-23.2-9.5-25.1-21.2c-2.2-14,7-26.3,19.7-29V128.3c0-0.9-1.2-1.2-1.6-0.5L135.8,303c-8.2,12.7-5.1,29.9,7,39.1c29.7,22.4,47.9,48.8,55.4,80.4h115.6c7.5-31.6,25.7-58,55.4-80.4c12.2-9.2,15.3-26.4,7-39.1L263,127.8z"/><path d="M476.2,223.1c-14.2-83-74.2-150.5-153-175.4c39.8,0.1,78.9,0.2,113.5,0.2c2.8,18.2,18.5,32.1,37.4,32.1C495,80,512,63,512,42.1c0-20.9-17-37.9-37.9-37.9c-19.2,0-35.1,14.4-37.5,33c-32.8-0.1-83.5-0.2-137.9-0.3V21.8C298.7,9.8,289,0,277,0H235c-12,0-21.8,9.8-21.8,21.8v15.1c-69.9-0.1-112.2-0.1-138,0C72.7,18.5,56.9,4.3,37.9,4.3C17,4.3,0,21.3,0,42.1C0,63,17,80,37.9,80c19,0,34.8-14.1,37.4-32.4c27.4-0.1,67.9-0.1,114-0.1C110.3,72.3,50,139.9,35.8,223.1C15.8,224.2,0,240.7,0,260.9c0,20.9,17,37.9,37.9,37.9c20.9,0,37.9-17,37.9-37.9c0-17.9-12.5-32.9-29.3-36.8c15.1-85.9,81.7-154.3,166.8-171.7v11.3c0,12,9.8,21.8,21.8,21.8H277c12,0,21.8-9.8,21.8-21.8V52.3c85.1,17.4,151.8,85.8,166.8,171.7c-16.7,3.9-29.3,18.9-29.3,36.8c0,20.9,17,37.9,37.9,37.9c20.9,0,37.9-17,37.9-37.9C512,240.7,496.2,224.2,476.2,223.1z"/></svg>