<svg xmlns="http://www.w3.org/2000/svg" viewBox="0 0 64 64"><path d="M54,8H50v2h4a3,3,0,0,1,3,3V40H55V13a1,1,0,0,0-1-1H50v2h3V40H11V14h3V12H10a1,1,0,0,0-1,1V40H7V13a3,3,0,0,1,3-3h4V8H10a5,5,0,0,0-5,5V45a5,5,0,0,0,5,5H27v4H24a5,5,0,0,0-5,5,1,1,0,0,0,1,1H44a1,1,0,0,0,1-1,5,5,0,0,0-5-5H37V50H54a5,5,0,0,0,5-5V13A5,5,0,0,0,54,8ZM42.83,58H21.17A3,3,0,0,1,24,56H40A3,3,0,0,1,42.83,58ZM35,54H29V50h6Zm19-6H10a3,3,0,0,1-3-3V42H57v3A3,3,0,0,1,54,48ZM28,44h8v2H28ZM17,25V36H47V25h2V36h2v2H13V36h2V25Zm0-13H47v5h2V7a3,3,0,0,0-3-3H18a3,3,0,0,0-3,3V17h2Zm1-6H46a1,1,0,0,1,1,1v3H17V7A1,1,0,0,1,18,6ZM48,18a3,3,0,0,0-2.82,2H36V19a1,1,0,0,0-1-1H29a1,1,0,0,0-1,1v1H18.82a3,3,0,1,0,0,2h5.33A7.07,7.07,0,0,0,22,27.07V28H20a1,1,0,0,0-1,1v4a1,1,0,0,0,1,1h6a1,1,0,0,0,1-1V29a1,1,0,0,0-1-1H24v-.93a5.07,5.07,0,0,1,4-4.95V23a1,1,0,0,0,1,1h6a1,1,0,0,0,1-1v-.88a5.09,5.09,0,0,1,4,4.95V28H38a1,1,0,0,0-1,1v4a1,1,0,0,0,1,1h6a1,1,0,0,0,1-1V29a1,1,0,0,0-1-1H42v-.93A7.06,7.06,0,0,0,39.83,22h5.35A3,3,0,1,0,48,18ZM25,32H21V30h4ZM16,22a1,1,0,1,1,1-1A1,1,0,0,1,16,22Zm18,0H30V20h4Zm9,10H39V30h4Zm5-10a1,1,0,1,1,1-1A1,1,0,0,1,48,22ZM22,9H19V7h3Zm5,0H24V7h3Z" data-name="28 Pen Tool, Bezier Tool, Design Tool, Graphic Design"/></svg>